<mxfile host="Electron" agent="Mozilla/5.0 (Windows NT 10.0; Win64; x64) AppleWebKit/537.36 (KHTML, like Gecko) draw.io/26.0.4 Chrome/128.0.6613.186 Electron/32.2.5 Safari/537.36" version="26.0.4">
  <diagram name="Page-1" id="7_Z8981V1ElBUZm9hgSq">
    <mxGraphModel dx="1434" dy="5517" grid="1" gridSize="10" guides="1" tooltips="1" connect="1" arrows="1" fold="1" page="1" pageScale="1" pageWidth="3300" pageHeight="4681" math="0" shadow="0">
      <root>
        <mxCell id="0" />
        <mxCell id="1" parent="0" />
        <mxCell id="nAR1nL-UHkU4ty_js7dU-6" style="rounded=0;orthogonalLoop=1;jettySize=auto;html=1;entryX=0;entryY=0.5;entryDx=0;entryDy=0;" edge="1" parent="1" source="nAR1nL-UHkU4ty_js7dU-1" target="nAR1nL-UHkU4ty_js7dU-5">
          <mxGeometry relative="1" as="geometry" />
        </mxCell>
        <mxCell id="nAR1nL-UHkU4ty_js7dU-19" style="rounded=0;orthogonalLoop=1;jettySize=auto;html=1;entryX=0.5;entryY=0;entryDx=0;entryDy=0;" edge="1" parent="1" source="nAR1nL-UHkU4ty_js7dU-1" target="nAR1nL-UHkU4ty_js7dU-14">
          <mxGeometry relative="1" as="geometry" />
        </mxCell>
        <mxCell id="nAR1nL-UHkU4ty_js7dU-20" style="rounded=0;orthogonalLoop=1;jettySize=auto;html=1;entryX=0;entryY=0;entryDx=0;entryDy=0;" edge="1" parent="1" source="nAR1nL-UHkU4ty_js7dU-1" target="nAR1nL-UHkU4ty_js7dU-13">
          <mxGeometry relative="1" as="geometry" />
        </mxCell>
        <mxCell id="nAR1nL-UHkU4ty_js7dU-21" style="rounded=0;orthogonalLoop=1;jettySize=auto;html=1;entryX=0;entryY=0.5;entryDx=0;entryDy=0;" edge="1" parent="1" source="nAR1nL-UHkU4ty_js7dU-1" target="nAR1nL-UHkU4ty_js7dU-12">
          <mxGeometry relative="1" as="geometry" />
        </mxCell>
        <mxCell id="nAR1nL-UHkU4ty_js7dU-24" style="rounded=0;orthogonalLoop=1;jettySize=auto;html=1;entryX=1;entryY=0.5;entryDx=0;entryDy=0;" edge="1" parent="1" source="nAR1nL-UHkU4ty_js7dU-1" target="nAR1nL-UHkU4ty_js7dU-22">
          <mxGeometry relative="1" as="geometry" />
        </mxCell>
        <mxCell id="nAR1nL-UHkU4ty_js7dU-25" style="rounded=0;orthogonalLoop=1;jettySize=auto;html=1;entryX=1;entryY=1;entryDx=0;entryDy=0;" edge="1" parent="1" source="nAR1nL-UHkU4ty_js7dU-1" target="nAR1nL-UHkU4ty_js7dU-23">
          <mxGeometry relative="1" as="geometry" />
        </mxCell>
        <mxCell id="nAR1nL-UHkU4ty_js7dU-1" value="Покупатель" style="shape=umlActor;verticalLabelPosition=bottom;verticalAlign=top;html=1;outlineConnect=0;" vertex="1" parent="1">
          <mxGeometry x="310" y="280" width="30" height="60" as="geometry" />
        </mxCell>
        <mxCell id="nAR1nL-UHkU4ty_js7dU-7" style="rounded=0;orthogonalLoop=1;jettySize=auto;html=1;entryX=0;entryY=0;entryDx=0;entryDy=0;" edge="1" parent="1" source="nAR1nL-UHkU4ty_js7dU-2" target="nAR1nL-UHkU4ty_js7dU-5">
          <mxGeometry relative="1" as="geometry" />
        </mxCell>
        <mxCell id="nAR1nL-UHkU4ty_js7dU-9" style="rounded=0;orthogonalLoop=1;jettySize=auto;html=1;entryX=0;entryY=0.5;entryDx=0;entryDy=0;" edge="1" parent="1" source="nAR1nL-UHkU4ty_js7dU-2" target="nAR1nL-UHkU4ty_js7dU-8">
          <mxGeometry relative="1" as="geometry" />
        </mxCell>
        <mxCell id="nAR1nL-UHkU4ty_js7dU-17" style="rounded=0;orthogonalLoop=1;jettySize=auto;html=1;entryX=1;entryY=0.5;entryDx=0;entryDy=0;" edge="1" parent="1" source="nAR1nL-UHkU4ty_js7dU-2" target="nAR1nL-UHkU4ty_js7dU-15">
          <mxGeometry relative="1" as="geometry" />
        </mxCell>
        <mxCell id="nAR1nL-UHkU4ty_js7dU-18" style="rounded=0;orthogonalLoop=1;jettySize=auto;html=1;entryX=1;entryY=0.5;entryDx=0;entryDy=0;" edge="1" parent="1" source="nAR1nL-UHkU4ty_js7dU-2" target="nAR1nL-UHkU4ty_js7dU-16">
          <mxGeometry relative="1" as="geometry" />
        </mxCell>
        <mxCell id="nAR1nL-UHkU4ty_js7dU-27" style="rounded=0;orthogonalLoop=1;jettySize=auto;html=1;" edge="1" parent="1" source="nAR1nL-UHkU4ty_js7dU-2" target="nAR1nL-UHkU4ty_js7dU-26">
          <mxGeometry relative="1" as="geometry" />
        </mxCell>
        <mxCell id="nAR1nL-UHkU4ty_js7dU-29" style="edgeStyle=orthogonalEdgeStyle;rounded=0;orthogonalLoop=1;jettySize=auto;html=1;" edge="1" parent="1" source="nAR1nL-UHkU4ty_js7dU-2" target="nAR1nL-UHkU4ty_js7dU-28">
          <mxGeometry relative="1" as="geometry" />
        </mxCell>
        <mxCell id="nAR1nL-UHkU4ty_js7dU-2" value="Продавец (Бренд)" style="shape=umlActor;verticalLabelPosition=bottom;verticalAlign=top;html=1;outlineConnect=0;" vertex="1" parent="1">
          <mxGeometry x="325" y="-80" width="30" height="60" as="geometry" />
        </mxCell>
        <mxCell id="nAR1nL-UHkU4ty_js7dU-11" style="rounded=0;orthogonalLoop=1;jettySize=auto;html=1;entryX=1;entryY=1;entryDx=0;entryDy=0;" edge="1" parent="1" source="nAR1nL-UHkU4ty_js7dU-3" target="nAR1nL-UHkU4ty_js7dU-10">
          <mxGeometry relative="1" as="geometry" />
        </mxCell>
        <mxCell id="nAR1nL-UHkU4ty_js7dU-30" style="rounded=0;orthogonalLoop=1;jettySize=auto;html=1;" edge="1" parent="1" source="nAR1nL-UHkU4ty_js7dU-3" target="nAR1nL-UHkU4ty_js7dU-26">
          <mxGeometry relative="1" as="geometry" />
        </mxCell>
        <mxCell id="nAR1nL-UHkU4ty_js7dU-3" value="Администратор" style="shape=umlActor;verticalLabelPosition=bottom;verticalAlign=top;html=1;outlineConnect=0;" vertex="1" parent="1">
          <mxGeometry x="1150" y="260" width="30" height="60" as="geometry" />
        </mxCell>
        <mxCell id="nAR1nL-UHkU4ty_js7dU-5" value="Регистрация через номер телефона" style="ellipse;whiteSpace=wrap;html=1;" vertex="1" parent="1">
          <mxGeometry x="660" y="140" width="120" height="80" as="geometry" />
        </mxCell>
        <mxCell id="nAR1nL-UHkU4ty_js7dU-8" value="Подать заявку на регистрацию бренда" style="ellipse;whiteSpace=wrap;html=1;" vertex="1" parent="1">
          <mxGeometry x="540" y="-210" width="120" height="80" as="geometry" />
        </mxCell>
        <mxCell id="nAR1nL-UHkU4ty_js7dU-10" value="Подтвердить или отклонить заявку на регистрацию бренда" style="ellipse;whiteSpace=wrap;html=1;" vertex="1" parent="1">
          <mxGeometry x="1170" y="-60" width="190" height="100" as="geometry" />
        </mxCell>
        <mxCell id="nAR1nL-UHkU4ty_js7dU-12" value="Просмотр каталога товаров" style="ellipse;whiteSpace=wrap;html=1;" vertex="1" parent="1">
          <mxGeometry x="450" y="330" width="120" height="80" as="geometry" />
        </mxCell>
        <mxCell id="nAR1nL-UHkU4ty_js7dU-13" value="Фильтрация и поиск товаров" style="ellipse;whiteSpace=wrap;html=1;" vertex="1" parent="1">
          <mxGeometry x="390" y="470" width="120" height="80" as="geometry" />
        </mxCell>
        <mxCell id="nAR1nL-UHkU4ty_js7dU-14" value="Просмотр карточки товара" style="ellipse;whiteSpace=wrap;html=1;" vertex="1" parent="1">
          <mxGeometry x="140" y="470" width="120" height="80" as="geometry" />
        </mxCell>
        <mxCell id="nAR1nL-UHkU4ty_js7dU-15" value="Добавить товар" style="ellipse;whiteSpace=wrap;html=1;" vertex="1" parent="1">
          <mxGeometry x="45" y="-170" width="120" height="80" as="geometry" />
        </mxCell>
        <mxCell id="nAR1nL-UHkU4ty_js7dU-16" value="Редактировать товар" style="ellipse;whiteSpace=wrap;html=1;" vertex="1" parent="1">
          <mxGeometry x="45" y="-50" width="120" height="80" as="geometry" />
        </mxCell>
        <mxCell id="nAR1nL-UHkU4ty_js7dU-22" value="Добавить товар в корзину" style="ellipse;whiteSpace=wrap;html=1;" vertex="1" parent="1">
          <mxGeometry x="10" y="290" width="120" height="80" as="geometry" />
        </mxCell>
        <mxCell id="nAR1nL-UHkU4ty_js7dU-23" value="Оформить заказ" style="ellipse;whiteSpace=wrap;html=1;" vertex="1" parent="1">
          <mxGeometry x="30" y="130" width="120" height="80" as="geometry" />
        </mxCell>
        <mxCell id="nAR1nL-UHkU4ty_js7dU-26" value="Просмотреть список заказов" style="ellipse;whiteSpace=wrap;html=1;" vertex="1" parent="1">
          <mxGeometry x="780" y="-90" width="120" height="80" as="geometry" />
        </mxCell>
        <mxCell id="nAR1nL-UHkU4ty_js7dU-28" value="Изменить статус заказа" style="ellipse;whiteSpace=wrap;html=1;" vertex="1" parent="1">
          <mxGeometry x="280" y="40" width="120" height="80" as="geometry" />
        </mxCell>
      </root>
    </mxGraphModel>
  </diagram>
</mxfile>
